# AST/ASF file generated using VICON BodyLanguage
# -----------------------------------------------
:version 1.10
:name VICON
:units
  mass 1.0
  length 0.45
  angle deg
:documentation
   .ast/.asf automatically generated from VICON data using
   VICON BodyBuilder and BodyLanguage model FoxedUp or BRILLIANT.MOD
:root
   order TX TY TZ RX RY RZ
   axis XYZ
   position 0 0 0  
   orientation 0 -0 0 
:bonedata
  begin
     id 1 
     name lhipjoint
     direction 0.432694 -0.693742 0.575759 
     length 2.19277 
     axis 0 -0 0  XYZ
  end
  begin
     id 2 
     name lfemur
     direction 0.34202 -0.939693 0  
     length 6.69022  
     axis 0 -0 20  XYZ
    dof rx ry rz
    limits (-160.0 20.0)
           (-70.0 70.0)
           (-60.0 70.0)
  end
  begin
     id 3 
     name ltibia
     direction 0.34202 -0.939693 0   
     length 6.50337   
     axis 0 -0 20   XYZ
    dof rx
    limits (-10.0 170.0)
  end
  begin
     id 4 
     name lfoot
     direction 0.158999 -0.435969 0.885805   
     length 2.70564   
     axis -90 -1.13533e-015 20   XYZ
    dof rx rz
    limits (-45.0 90.0)
           (-70.0 20.0)
  end
  begin
     id 5 
     name ltoes
     direction -0.00592919 0.00964381 0.999936   
     length 1.29929   
     axis -90 -1.13533e-015 20   XYZ
    dof rx
    limits (-90.0 20.0)
  end
  begin
     id 6 
     name rhipjoint
     direction -0.414359 -0.700339 0.581234   
     length 2.17212  
     axis 0 -0 0  XYZ 
  end
  begin
     id 7 
     name rfemur
     direction -0.34202 -0.939693 0   
     length 7.17659   
     axis 0 -0 -20   XYZ
    dof rx ry rz
    limits (-160.0 20.0)
           (-70.0 70.0)
           (-70.0 60.0)
  end
  begin
     id 8 
     name rtibia
     direction -0.34202 -0.939693 0   
     length 6.36669   
     axis 0 -0 -20   XYZ
    dof rx
    limits (-10.0 170.0)
 end
 begin
     id 9 
     name rfoot
     direction -0.137064 -0.37658 0.916188   
     length 2.22351  
     axis -90 1.13533e-015 -20   XYZ
    dof rx rz
    limits (-45.0 90.0)
           (-20.0 70.0)
  end
  begin
     id 10 
     name rtoes
     direction -0.000784077 -0.00289101 0.999996   
     length 1.09522   
     axis -90 1.13533e-015 -20   XYZ
    dof rx
    limits (-90.0 20.0)
  end
  begin
     id 11 
     name lowerback
     direction -0.0176242 0.984912 -0.172157   
     length 1.65301   
     axis 0 -0 0   XYZ
    dof rx ry rz
    limits (-20.0 45.0)
           (-30.0 30.0)
           (-30.0 30.0)
  end
  begin
     id 12 
     name upperback
     direction -0.00218128 0.998776 -0.0494072   
     length 1.67776   
     axis 0 -0 0   XYZ
    dof rx ry rz
    limits (-20.0 45.0)
           (-30.0 30.0)
           (-30.0 30.0)
  end
  begin
     id 13 
     name thorax
     direction 0.00544186 0.999658 0.0255711   
     length 1.72293   
     axis 0 -0 0   XYZ
    dof rx ry rz
    limits (-20.0 45.0)
           (-30.0 30.0)
           (-30.0 30.0)
  end
  begin
     id 14 
     name lowerneck
     direction -0.105325 0.983841 0.144785   
     length 2.14226   
     axis 0 -0 0   XYZ
    dof rx ry rz
    limits (-20.0 45.0)
           (-30.0 30.0)
           (-30.0 30.0)
  end
  begin
     id 15 
     name upperneck
     direction 0.0547957 0.988053 -0.144041   
     length 2.17508   
     axis 0 -0 0   XYZ
    dof rx ry rz
    limits (-20.0 45.0)
           (-30.0 30.0)
           (-30.0 30.0)
  end
  begin
     id 16
     name head
     direction 0.0247488 0.997534 -0.0656813  
     length 2.20048  
     axis 0 -0 0   XYZ
    dof rx ry rz
    limits (-20.0 45.0)
           (-30.0 30.0)
           (-30.0 30.0)
  end
  begin
     id 17 
     name lclavicle
     direction 0.820559 0.567247 -0.0701026  
     length 4.09615  
     axis 0 -0 0   XYZ
    dof ry rz
    limits (-20.0 10.0)
           (0.0 20.0)
  end
  begin
     id 18 
     name lhumerus
     direction 0.999977 -0.0067566 -9.96392e-005   
     length 4.59333   
     axis -180 -30 -90   XYZ
    dof rx ry rz
    limits (-60.0 90.0)
           (-90.0 90.0)
           (-90.0 90.0)
  end
  begin
     id 19
     name lradius
     direction 1 -4.48982e-011 -2.53425e-027   
     length 2.81151   
     axis -180 -30 -90   XYZ
    dof rx
    limits (-10.0 170.0)
  end
  begin
     id 20
     name lwrist
     direction 1 -4.48939e-011 -7.39254e-028   
     length 1.40576   
     axis 2.56395e-016 90 90   XYZ
    dof ry
    limits (-180.0 0.0)
 end
  begin
     id 21 
     name lhand
     direction 1 -4.48939e-011 -1.47851e-027   
     length 0.895651   
     axis 9.43423e-016 90 90   XYZ
    dof rx rz
    limits (-90.0 90.0)
           (-45.0 45.0)
  end
  begin
     id 22 
     name lfingers
     direction 1 -4.48978e-011 -2.95702e-027   
     length 0.722097   
     axis 1.88685e-015 90 90   XYZ
    dof rx
    limits (0.0 90.0)
  end
  begin
     id 23
     name lthumb
     direction 0.707107 -6.34931e-011 0.707107   
     length 1.03679   
     axis -90 45 -9.86935e-015   XYZ
    dof rx rz
    limits (-45.0 45.0)
           (-45.0 45.0)
  end
  begin
     id 24 
     name rclavicle
     direction -0.831414 0.553102 -0.0531864   
     length 4.24872  
     axis 0 -0 0   XYZ 
    dof ry rz
    limits (-10.0 20.0)
           (-20.0 0.0)
  end
  begin
     id 25 
     name rhumerus
     direction -0.999916 -0.000939607 0.0129331  
     length 4.74834   
     axis -180 30 90   XYZ
    dof rx ry rz
    limits (-90.0 60.0)
           (-90.0 90.0)
           (-90.0 90.0)
  end
  begin
     id 26 
     name rradius
     direction -1 -4.48956e-011 -1.31752e-027   
     length 2.79907   
     axis -180 30 90   XYZ
    dof rx
    limits (-10.0 170.0)
  end
  begin
     id 27 
     name rwrist
     direction -1 -4.4897e-011 -7.39254e-028   
     length 1.39954   
     axis 2.56395e-016 -90 -90   XYZ
    dof ry
    limits (-180.0 0.0)
  end
  begin
     id 28
     name rhand
     direction -0.999997 -0.00250697 0.000800838   
     length 0.953304   
     axis 9.43423e-016 -90 -90   XYZ
    dof rx rz
    limits (-90.0 90.0)
           (-45.0 45.0)
  end
  begin
     id 29
     name rfingers
     direction -1 -4.48954e-011 -2.95702e-027   
     length 0.763342   
     axis 1.88685e-015 -90 -90   XYZ
    dof rx
    limits (0.0 90.0)
  end
  begin
     id 30
     name rthumb
     direction -0.709701 -0.00217037 0.7045   
     length 1.10115   
     axis -90 -45 9.86935e-015   XYZ
    dof rx rz
    limits (-45.0 45.0)
           (-45.0 45.0)
  end
:hierarchy
  begin
    root lhipjoint rhipjoint lowerback
    lhipjoint lfemur
    lfemur ltibia
    ltibia lfoot
    lfoot ltoes
    rhipjoint rfemur
    rfemur rtibia
    rtibia rfoot
    rfoot rtoes
    lowerback upperback
    upperback thorax
    thorax lowerneck lclavicle rclavicle
    lowerneck upperneck
    upperneck head
    lclavicle lhumerus
    lhumerus lradius
    lradius lwrist
    lwrist lhand lthumb
    lhand lfingers
    rclavicle rhumerus
    rhumerus rradius
    rradius rwrist
    rwrist rhand rthumb
    rhand rfingers
  end

#!OML:ASF G:\ViconDB\ViconDB\414\test\team2\shane.ASF
:FULLY-SPECIFIED
:DEGREES
33
root 6.50472 26.0747 -14.9572 -1.85391 -3.13865 -1.94219
lowerback 21.9422 -0.504073 -5.64561
upperback 9.40606 -1.51237 6.96783
thorax -1.51193 -1.10777 11.2992
lowerneck -15.8012 -0.0137202 -5.76422
upperneck 39.939 -2.74787 10.7182
head 17.6422 -0.584214 5.50072
rclavicle 1.82882e-014 3.02153e-014
rhumerus 44.6059 36.8565 -55.446
rradius 80.8363
rwrist 24.5183
rhand -42.4272 -32.3511
rfingers 7.12502
rthumb -15.3067 -61.7647
lclavicle 3.57812e-014 -7.15625e-014
lhumerus 9.41064 -46.202 16.6671
lradius 76.4832
lwrist -13.5939
lhand -25.9951 -52.8108
lfingers 7.12502
lthumb 0.550483 -22.8318
rfemur -32.3039 -31.6051 -0.889903
rtibia 52.7707
rfoot 8.76644 8.55011
rtoes -18.6709
lfemur -30.2212 37.3716 5.86473
ltibia 49.857
lfoot -12.0861 -1.52807
ltoes -4.67364
34
root 6.48485 25.8809 -14.7817 -2.12323 -3.10803 -2.44467
lowerback 21.4472 -0.457055 -5.62512
upperback 9.57167 -1.44443 6.87369
thorax -1.10283 -1.09789 11.1308
lowerneck -15.0682 -0.177015 -6.67889
upperneck 39.9731 -3.13826 11.7526
head 17.568 -0.768554 6.08998
rclavicle 1.82882e-014 3.02153e-014
rhumerus 44.6059 36.8565 -55.446
rradius 80.8363
rwrist 24.5183
rhand -42.4272 -32.3511
rfingers 7.12502
rthumb -15.3067 -61.7647
lclavicle -2.5842e-014 2.94201e-014
lhumerus 8.44691 -55.1797 17.6945
lradius 86.4628
lwrist -0.875137
lhand -4.77211 5.73601
lfingers 7.12502
lthumb 21.0124 34.6177
rfemur -27.7034 -28.7041 -1.46201
rtibia 48.3483
rfoot 11.3198 5.70349
rtoes -15.3301
lfemur -31.1437 40.4892 6.81613
ltibia 51.6097
lfoot -11.9827 -4.28037
ltoes -5.24427
35
root 6.48042 25.6645 -14.5994 -2.268 -2.84969 -2.87799
lowerback 20.575 -0.464177 -5.03035
upperback 9.74789 -1.33258 6.72709
thorax -0.531277 -1.04866 10.529
lowerneck -14.1625 -0.314675 -7.14757
upperneck 40.0694 -3.35599 12.0612
head 17.4339 -0.907517 6.27762
rclavicle 1.82882e-014 3.02153e-014
rhumerus 44.6059 36.8565 -55.446
rradius 80.8363
rwrist 24.5183
rhand -42.4272 -32.3511
rfingers 7.12502
rthumb -15.3067 -61.7647
lclavicle 1.19271e-015 1.03368e-014
lhumerus 7.78733 -58.7704 18.9356
lradius 87.163
lwrist -0.331961
lhand -5.44884 3.84044
lfingers 7.12502
lthumb 20.3621 32.7929
rfemur -22.9737 -25.6954 -1.83582
rtibia 43.2232
rfoot 13.4067 3.35345
rtoes -12.5458
lfemur -31.6329 41.6665 7.74771
ltibia 52.9392
lfoot -11.8271 -6.49038
ltoes -5.74171
36
root 6.49414 25.4191 -14.409 -2.36629 -2.51826 -3.15262
lowerback 19.365 -0.47814 -3.85893
upperback 9.91177 -1.14266 6.40311
thorax 0.15632 -0.927951 9.36254
lowerneck -13.4278 -0.582627 -7.1983
upperneck 40.5037 -3.69604 11.7943
head 17.5402 -1.10448 6.12972
rclavicle 1.82882e-014 3.02153e-014
rhumerus 44.6059 36.8565 -55.446
rradius 80.8363
rwrist 24.5183
rhand -42.4272 -32.3511
rfingers 7.12502
rthumb -15.3067 -61.7647
lclavicle 1.07344e-014 -5.96354e-014
lhumerus 7.46933 -61.8553 19.226
lradius 87.8582
lwrist 0.413282
lhand -6.83493 2.60283
lfingers 7.12502
lthumb 19.0296 31.6919
rfemur -18.3714 -22.5831 -1.98686
rtibia 37.7483
rfoot 14.8972 1.54422
rtoes -11.3178
lfemur -31.6861 41.4737 8.61015
ltibia 53.8911
lfoot -11.5457 -8.43341
ltoes -6.67103
37
root 6.50626 25.1574 -14.2199 -2.45618 -1.98718 -2.95357
lowerback 18.2054 -0.449807 -3.00207
upperback 9.88499 -0.964446 6.08929
thorax 0.642049 -0.802836 8.42667
lowerneck -12.3722 -0.760123 -7.56418
upperneck 40.9554 -3.82652 11.5745
head 17.5428 -1.26117 6.09573
rclavicle 1.82882e-014 3.02153e-014
rhumerus 44.6059 36.8565 -55.446
rradius 80.8363
rwrist 24.5183
rhand -42.4272 -32.3511
rfingers 7.12502
rthumb -15.3067 -61.7647
lclavicle -1.55052e-014 -4.77083e-015
lhumerus 6.03436 -64.2749 19.859
lradius 88.9906
lwrist 1.44594
lhand -7.7533 1.51863
lfingers 7.12502
lthumb 18.1462 30.6922
rfemur -13.6955 -19.1914 -2.38556
rtibia 31.9614
rfoot 15.8897 -0.529183
rtoes -10.2663
lfemur -31.3939 40.2239 8.82124
ltibia 54.2873
lfoot -11.1765 -10.002
ltoes -7.53033
38
root 6.51074 24.8653 -14.029 -2.63373 -1.30512 -2.55091
lowerback 17.178 -0.433262 -2.68535
upperback 9.68252 -0.884338 6.10933
thorax 0.927975 -0.747267 8.21714
lowerneck -11.0725 -0.886745 -8.42731
upperneck 41.536 -3.59846 10.9578
head 17.4955 -1.40162 6.03082
rclavicle 1.82882e-014 3.02153e-014
rhumerus 44.6059 36.8565 -55.446
rradius 80.8363
rwrist 24.5183
rhand -42.4272 -32.3511
rfingers 7.12502
rthumb -15.3067 -61.7647
lclavicle 1.63003e-014 3.18055e-014
lhumerus 2.60933 -65.7769 22.0371
lradius 89.6574
lwrist 1.38282
lhand -10.1449 0.00189625
lfingers 7.12502
lthumb 15.8441 29.3736
rfemur -8.98128 -16.2861 -2.61057
rtibia 26.0585
rfoot 16.6887 -2.65079
rtoes -9.0944
lfemur -30.7506 38.4052 8.61586
ltibia 54.2194
lfoot -11.0677 -11.2293
ltoes -9.07699
39
root 6.50846 24.5648 -13.8402 -2.99617 -0.496818 -2.19893
lowerback 16.4911 -0.565616 -2.2929
upperback 9.31202 -0.988804 6.02114
thorax 0.884262 -0.765177 7.88603
lowerneck -9.45921 -0.861341 -9.04214
upperneck 42.1249 -3.23421 10.2637
head 17.3464 -1.46282 5.89352
rclavicle 1.82882e-014 3.02153e-014
rhumerus 44.6059 36.8565 -55.446
rradius 80.8363
rwrist 24.5183
rhand -42.4272 -32.3511
rfingers 7.12502
rthumb -15.3067 -61.7647
lclavicle 3.02153e-014 -4.29375e-014
lhumerus 3.02572 -69.8209 27.2675
lradius 113.022
lwrist 8.72902
lhand -29.7392 -9.49745
lfingers 7.12502
lthumb -3.06564 20.4603
rfemur -4.10194 -13.6035 -2.47889
rtibia 20.1316
rfoot 17.2491 -5.66059
rtoes -6.70858
lfemur -29.4123 35.671 8.82315
ltibia 53.5818
lfoot -10.3725 -12.6121
ltoes -9.49396
40
root 6.51156 24.2328 -13.6582 -3.34321 0.0437255 -1.89482
lowerback 15.8932 -0.60431 -1.66749
upperback 9.10786 -0.953284 5.77654
thorax 0.94324 -0.707673 7.22902
lowerneck -8.22673 -0.984294 -9.74444
upperneck 42.3703 -3.24981 10.0798
head 17.1846 -1.6188 5.93742
rclavicle 1.82882e-014 3.02153e-014
rhumerus 44.6059 36.8565 -55.446
rradius 80.8363
rwrist 24.5183
rhand -42.4272 -32.3511
rfingers 7.12502
rthumb -15.3067 -61.7647
lclavicle -8.74653e-015 -3.02153e-014
lhumerus -4.6711 -70.3692 55.9867
lradius 89.5167
lwrist -1.76914
lhand -32.6441 -10.0069
lfingers 7.12502
lthumb -5.87066 19.8918
rfemur 0.381719 -11.9199 -1.97827
rtibia 14.3326
rfoot 18.0358 -8.66793
rtoes -6.61233
lfemur -27.8459 32.6433 8.87352
ltibia 52.5701
lfoot -9.71629 -13.2273
ltoes -10.294
41
root 6.50219 23.8853 -13.4799 -3.61407 0.260339 -1.73405
lowerback 15.2278 -0.525595 -1.03704
upperback 8.87315 -0.77076 5.54858
thorax 0.992187 -0.577556 6.57068
lowerneck -6.99122 -1.13549 -10.4318
upperneck 42.4922 -3.35981 9.97204
head 16.9737 -1.79979 5.99134
rclavicle 1.82882e-014 3.02153e-014
rhumerus 44.6059 36.8565 -55.446
rradius 80.8363
rwrist 24.5183
rhand -42.4272 -32.3511
rfingers 7.12502
rthumb -15.3067 -61.7647
lclavicle -8.74653e-015 -2.70347e-014
lhumerus -12.1333 -67.7941 55.7753
lradius 94.44
lwrist -0.070335
lhand -33.5905 -9.39088
lfingers 7.12502
lthumb -6.78431 20.4804
rfemur 4.54537 -13.9882 -1.2966
rtibia 8.51605
rfoot 19.4984 -8.76543
rtoes -6.58636
lfemur -26.005 29.8204 9.08539
ltibia 51.1673
lfoot -8.83312 -13.7414
ltoes -10.3198
